<svg version="1.1" id="Layer_1" xmlns="http://www.w3.org/2000/svg" xmlns:xlink="http://www.w3.org/1999/xlink" x="0px" y="0px"
	 width="100%" viewBox="0 0 1460 227" enable-background="new 0 0 1460 227" xml:space="preserve">
<path fill="#000000" opacity="1.000000" stroke="none" 
	d="
M1381.000000,228.000000 
	C920.666809,228.000000 460.833618,228.000000 1.000309,228.000000 
	C1.000206,152.333496 1.000206,76.666985 1.000103,1.000359 
	C487.666382,1.000239 974.332764,1.000239 1460.999268,1.000120 
	C1460.999512,76.666344 1460.999512,152.332687 1460.999756,227.999512 
	C1434.500000,228.000000 1408.000000,228.000000 1381.000000,228.000000 
M139.942886,132.668076 
	C140.282288,132.802673 140.621704,132.937271 140.992432,133.003723 
	C140.992432,133.003723 140.928970,133.043671 140.842209,133.752319 
	C147.585083,140.184128 158.472290,141.537491 165.950531,136.873474 
	C173.754807,132.006104 174.327026,121.483437 167.002548,116.991692 
	C167.002548,116.991692 167.067612,116.981148 167.063660,116.283073 
	C166.700165,116.013290 166.336670,115.743507 165.648956,114.942093 
	C160.584412,113.012497 155.519882,111.082901 149.720123,108.549004 
	C148.871490,104.839592 151.938171,104.028595 154.044647,104.203690 
	C157.536499,104.493935 160.890976,106.176285 164.388718,106.763603 
	C166.208252,107.069115 169.066940,106.928131 169.895950,105.820747 
	C170.774323,104.647469 170.066727,102.010330 169.523483,100.168365 
	C169.259766,99.274170 167.790192,98.735611 166.949677,98.046844 
	C166.949677,98.046844 166.907623,98.119392 166.857971,97.454208 
	C166.497604,97.196602 166.137222,96.938988 165.309952,96.256493 
	C160.563400,92.627083 155.098129,91.614334 149.367569,92.403999 
	C144.029434,93.139580 139.537842,95.494568 137.820557,101.109810 
	C136.292191,106.107292 137.181519,110.562782 141.733734,114.636772 
	C142.146454,114.785027 142.559174,114.933273 142.980057,115.007500 
	C142.980057,115.007500 142.917770,115.048332 142.862701,115.758789 
	C147.168686,121.474014 154.091660,120.667297 159.810608,122.893326 
	C159.836182,123.102783 159.907394,123.295364 159.518707,123.976295 
	C159.272629,124.631088 159.026535,125.285873 158.950424,125.957359 
	C158.950424,125.957359 158.946671,125.786613 158.233398,125.827995 
	C157.666351,126.254395 157.099304,126.680794 155.834213,127.266861 
	C152.083069,126.659363 147.759796,127.010994 144.725845,125.201180 
	C140.947495,122.947319 138.625885,123.261337 136.018112,125.335655 
	C136.256882,123.539536 136.672699,121.746429 136.703247,119.946777 
	C136.824432,112.807388 136.465103,105.794373 129.980728,101.020096 
	C129.980728,101.020096 130.015732,101.029205 129.969452,100.341202 
	C129.592667,100.091507 129.215897,99.841805 128.408386,99.149292 
	C124.945595,94.850121 120.358330,92.829483 114.933281,92.693954 
	C110.614769,92.586075 106.291420,92.688591 101.970711,92.646721 
	C97.973145,92.607986 96.309662,94.616455 96.335869,98.524590 
	C96.404976,108.828239 96.206192,119.137024 96.498703,129.432831 
	C96.552299,131.319260 98.417770,133.154221 99.684319,135.782837 
	C100.867310,136.845917 102.036285,138.804443 103.235619,138.823212 
	C109.818222,138.926254 116.458878,138.987976 122.981995,138.227142 
	C129.966156,137.412552 132.851334,131.395737 136.543579,126.591507 
	C137.003677,127.932388 137.463791,129.273254 138.199295,131.261780 
	C138.793518,131.542236 139.387726,131.822708 139.965546,132.022995 
	C139.965546,132.022995 139.888519,132.050613 139.942886,132.668076 
M90.250534,128.389175 
	C89.604027,124.867859 87.279564,125.604240 84.988457,126.336975 
	C80.290199,127.839546 75.699715,128.247879 71.205139,124.279938 
	C66.676163,112.369171 74.554710,100.532478 88.876411,105.943611 
	C89.179184,106.058006 89.598526,106.187531 89.847549,106.068161 
	C91.496796,105.277466 93.753624,104.798454 94.540878,103.466354 
	C95.176056,102.391579 94.269852,100.148743 93.576180,98.640915 
	C93.150963,97.716644 91.836998,97.201241 90.573257,95.974861 
	C82.780602,90.657509 74.726723,91.160004 67.115364,95.861923 
	C55.677158,102.927872 52.106430,120.080269 65.902588,132.509979 
	C72.669876,139.338593 83.281296,141.691406 91.408073,137.772232 
	C93.008476,137.000443 95.034225,134.569626 94.820694,133.229477 
	C94.561745,131.604233 92.134094,130.324509 90.250534,128.389175 
M559.220947,153.008041 
	C563.963989,150.023315 569.693054,147.915665 573.270203,143.893951 
	C585.326965,130.338882 587.189392,113.895317 583.930237,96.745659 
	C580.257874,77.421715 565.396240,64.200050 544.788147,64.951378 
	C536.635376,65.248604 528.462830,65.000130 520.299255,65.000130 
	C516.552734,65.000130 512.806213,65.000137 509.351166,65.000137 
	C509.351166,95.116173 509.351166,124.514771 509.351166,153.999741 
	C524.858337,153.999741 540.014648,154.017349 555.170715,153.962097 
	C556.238037,153.958221 557.303406,153.416641 559.220947,153.008041 
M1043.998169,148.667648 
	C1042.768555,155.406464 1039.867432,161.089386 1033.005005,163.434372 
	C1022.354858,167.073608 1012.803833,164.380035 1004.000122,157.027893 
	C1004.000122,162.027527 1003.668396,166.529373 1004.161560,170.938995 
	C1004.361755,172.729614 1005.988220,175.145187 1007.596924,175.864334 
	C1016.861145,180.005707 1026.504395,180.954330 1036.608521,179.101257 
	C1045.414673,177.486221 1056.977783,171.609955 1059.909302,160.532379 
	C1061.100342,156.031769 1061.852173,151.283539 1061.908447,146.637161 
	C1062.131226,128.204239 1062.000000,109.767036 1062.000000,90.688057 
	C1055.746704,92.452225 1048.700928,87.579742 1044.264160,95.068253 
	C1043.163452,94.548477 1042.125244,94.125053 1041.149902,93.587456 
	C1030.906250,87.941345 1020.381165,88.092850 1010.708923,94.063179 
	C998.752502,101.443405 995.306702,112.774742 996.817810,126.701721 
	C999.001648,146.829086 1023.029175,160.604309 1041.735107,147.856583 
	C1042.243042,147.510376 1043.216675,147.847473 1043.998169,148.667648 
M1076.421387,107.947990 
	C1081.301758,113.597099 1087.966309,116.027229 1094.837036,117.967499 
	C1100.393433,119.536583 1106.133789,120.511848 1111.595947,122.338661 
	C1115.962402,123.799042 1119.264038,128.190338 1114.390137,133.210861 
	C1106.800659,141.028519 1091.934692,137.773117 1086.869629,126.407799 
	C1080.868286,129.279373 1074.884155,132.142670 1068.210083,135.336105 
	C1071.172119,139.554916 1072.989136,143.911240 1076.229248,146.455917 
	C1091.368530,158.345871 1107.617188,159.471756 1124.520386,150.049927 
	C1135.757080,143.786591 1140.914795,131.235352 1136.997192,119.474396 
	C1133.857910,110.050240 1126.095459,106.524803 1117.452515,103.975014 
	C1110.101807,101.806480 1102.645142,99.825203 1095.575195,96.931015 
	C1089.693726,94.523369 1089.625977,90.713364 1093.588257,85.762177 
	C1098.306763,79.866020 1113.857910,80.232117 1119.525757,89.933968 
	C1124.681274,86.507988 1129.827393,83.088242 1135.147217,79.553131 
	C1133.907837,77.969818 1132.970093,76.643982 1131.904663,75.430481 
	C1121.689209,63.796028 1108.661743,62.304249 1094.422852,64.983170 
	C1076.817383,68.295471 1063.000732,89.306473 1076.421387,107.947990 
M394.412292,90.000137 
	C364.028931,87.216110 350.310760,126.689743 370.780487,147.047714 
	C382.735260,158.937256 396.778961,158.774780 411.053284,150.089584 
	C411.643127,151.634384 412.078827,152.775452 412.421478,153.672852 
	C418.056274,153.672852 423.466949,153.672852 428.704407,153.672852 
	C428.704407,122.963226 428.704407,92.581345 428.704407,62.292915 
	C422.336792,62.292915 416.268066,62.292915 409.869995,62.292915 
	C409.869995,72.983215 409.869995,83.384926 409.869995,93.099182 
	C404.896271,92.037521 400.123871,91.018829 394.412292,90.000137 
M1408.537598,62.000145 
	C1406.102173,62.000145 1403.666626,62.000145 1401.000000,62.000145 
	C1401.000000,67.857895 1401.000000,73.166351 1401.000000,78.474808 
	C1401.000000,83.835747 1401.000000,89.196693 1401.000000,94.938416 
	C1389.295898,86.790741 1370.371094,88.239151 1361.055420,98.652748 
	C1348.855957,112.290367 1349.126221,129.978622 1357.861816,143.102798 
	C1362.440918,149.982162 1369.400879,154.693512 1377.889038,155.861832 
	C1386.375122,157.029861 1394.315186,155.001831 1401.329834,149.773849 
	C1402.139038,151.324524 1402.796143,152.583908 1403.390625,153.723007 
	C1408.583008,153.723007 1413.676758,153.723007 1418.719116,153.723007 
	C1418.719116,123.040031 1418.719116,92.634773 1418.719116,62.000145 
	C1415.463745,62.000145 1412.487183,62.000145 1408.537598,62.000145 
M681.999939,167.485168 
	C681.999939,161.833221 681.999939,156.181274 681.999939,150.496246 
	C695.833801,155.493759 701.638977,156.694016 705.691284,155.743301 
	C714.149780,153.758911 721.466553,150.016327 726.110291,142.333694 
	C733.447266,130.195328 734.368225,114.863129 724.485413,101.121780 
	C720.539734,95.635551 714.793579,91.866844 708.048096,90.634514 
	C699.044189,88.989601 690.109436,89.195435 682.606628,94.667183 
	C676.970337,87.860397 670.129517,92.479088 664.296631,90.891571 
	C664.296631,120.695770 664.296631,149.749420 664.296631,178.704376 
	C670.334045,178.704376 676.069153,178.704376 681.999939,178.704376 
	C681.999939,175.099731 681.999939,171.788940 681.999939,167.485168 
M1208.000000,124.500000 
	C1208.000000,113.401421 1208.000000,102.302841 1208.000000,91.249001 
	C1193.406250,90.361153 1193.406250,90.361153 1190.031372,94.944862 
	C1178.926025,86.764877 1159.796753,88.086075 1150.202026,98.494987 
	C1138.267700,111.441978 1137.374268,130.563904 1147.732422,144.028336 
	C1156.393555,155.286942 1172.093384,161.384186 1190.212402,150.335785 
	C1190.212402,159.958420 1190.212402,169.370468 1190.212402,178.714371 
	C1196.305542,178.714371 1202.044556,178.714371 1207.728394,178.714371 
	C1207.853149,178.119690 1207.975098,177.808350 1207.975342,177.496887 
	C1207.989990,160.164597 1207.994385,142.832291 1208.000000,124.500000 
M247.785965,84.000748 
	C257.791656,80.818283 265.563538,85.817703 273.383209,91.485641 
	C277.404236,86.655724 281.205200,82.090141 285.083252,77.431984 
	C275.449463,68.113892 264.682037,63.409710 251.405197,63.876183 
	C237.001709,64.382240 226.213638,71.085930 218.092743,82.156464 
	C208.941269,94.631889 206.914291,108.846893 211.073730,123.668793 
	C216.166840,141.817825 232.557907,155.620804 251.457855,156.029037 
	C266.450226,156.352859 278.152771,149.918579 287.543976,138.777069 
	C288.326599,137.848587 288.187378,134.994568 287.342102,134.045975 
	C284.093475,130.400238 280.382782,127.166245 276.715729,123.655449 
	C274.808838,125.614105 273.384766,127.261009 271.774506,128.699432 
	C264.043213,135.605652 255.084793,138.198044 245.240784,134.604309 
	C234.562439,130.705978 229.200134,120.215126 229.068604,110.844994 
	C228.887756,97.963799 235.087479,89.024658 247.785965,84.000748 
M1305.493530,155.057495 
	C1314.965820,157.804184 1323.257568,155.181915 1329.818726,150.001572 
	C1331.391479,151.525803 1332.574829,153.690460 1333.958984,153.827621 
	C1338.520630,154.279617 1343.155029,153.997818 1347.730225,153.997818 
	C1347.730225,132.725311 1347.730225,111.987404 1347.730225,89.656090 
	C1342.160278,94.266930 1333.065674,85.123680 1330.398926,96.576660 
	C1321.893799,87.858315 1303.421143,88.022339 1294.764771,94.626854 
	C1283.271484,103.395981 1278.654419,114.534470 1280.889893,128.982086 
	C1282.944336,142.260010 1291.614380,152.321045 1305.493530,155.057495 
M633.819946,91.291855 
	C625.747314,89.500732 617.758362,88.890808 609.938843,92.516479 
	C598.410706,97.861679 591.722839,106.988609 590.136475,119.370209 
	C588.801392,129.791336 592.377380,139.487885 600.067932,146.227798 
	C612.883362,157.459198 628.010864,158.661301 643.736755,152.661896 
	C649.490601,150.466827 649.877869,149.001144 646.895752,143.535950 
	C646.274475,142.397369 645.883545,140.971649 644.952881,140.203568 
	C643.747681,139.208893 642.001587,138.000488 640.675476,138.190445 
	C637.215820,138.685959 633.873596,139.956085 630.456360,140.803314 
	C623.670837,142.485672 613.230591,137.571564 611.659729,131.851105 
	C625.678223,131.851105 639.644287,131.851105 653.584717,131.851105 
	C656.116577,110.884537 650.389832,99.036469 633.819946,91.291855 
M491.431122,150.961914 
	C492.149689,149.667877 493.761627,148.032227 493.421600,147.143021 
	C492.343567,144.323868 490.681854,141.680710 488.924561,139.196793 
	C488.386322,138.436035 486.717194,137.931259 485.731171,138.129852 
	C482.282135,138.824509 478.918091,139.928772 475.498260,140.783615 
	C468.973877,142.414520 459.053650,138.025192 455.598236,131.999878 
	C465.620697,131.999878 475.615356,131.999878 485.610016,131.999878 
	C499.669617,131.999878 499.894653,131.984482 498.927612,117.855919 
	C498.172577,106.824905 489.559631,95.708748 479.399719,92.054558 
	C464.472626,86.685791 450.452789,90.620438 441.104767,103.510902 
	C430.892731,117.592789 433.107208,135.927383 445.753296,147.030609 
	C458.151001,157.915741 476.732391,159.117828 491.431122,150.961914 
M780.703125,91.996689 
	C776.302734,95.332092 771.231995,98.071953 767.635071,102.121078 
	C758.873596,111.983742 757.590210,123.843239 762.462830,135.673584 
	C767.275818,147.359177 776.682678,154.491852 789.416199,155.916458 
	C810.198303,158.241516 828.209412,140.057602 825.154663,118.228928 
	C822.285828,97.728996 801.697449,84.386177 780.703125,91.996689 
M294.941101,115.503677 
	C291.780426,124.742668 296.209900,141.087769 303.813232,147.264023 
	C315.163788,156.484207 329.100067,159.380920 343.401855,151.290924 
	C356.329071,143.978470 362.064148,128.187256 357.979309,114.419273 
	C352.897217,97.290222 342.482849,90.164375 324.640106,89.944572 
	C311.609955,89.784058 297.277740,101.159042 294.941101,115.503677 
M852.519775,139.014847 
	C855.675049,143.005692 854.716309,146.895370 852.572876,151.015549 
	C850.059692,155.846252 847.871643,160.850555 845.654785,165.829544 
	C843.760437,170.084259 842.024658,174.409622 840.094299,178.999878 
	C845.461731,178.999878 850.166931,178.605652 854.773132,179.111938 
	C859.285095,179.607834 861.168518,177.409912 862.703064,173.783600 
	C866.447510,164.934631 870.290039,156.124603 874.252075,147.370850 
	C880.994446,132.474319 887.892639,117.648323 894.648438,102.757751 
	C896.324402,99.063652 897.705200,95.235580 899.410461,91.000404 
	C893.295776,91.000404 887.949890,90.694191 882.676941,91.179932 
	C881.012634,91.333252 878.914062,93.295120 878.090088,94.961319 
	C873.654724,103.930458 869.558350,113.067215 864.945435,123.007095 
	C860.001160,112.966095 855.506287,103.775139 850.933350,94.623253 
	C850.302002,93.359818 849.327942,91.325302 848.437744,91.284660 
	C842.090088,90.994781 835.723083,91.130028 828.664490,91.130028 
	C836.810608,107.605461 844.424377,123.004242 852.519775,139.014847 
M1234.000732,128.984909 
	C1234.000732,116.396439 1234.000732,103.807968 1234.000732,91.281891 
	C1227.695190,91.281891 1221.959595,91.281891 1216.000488,91.281891 
	C1216.000488,105.859863 1215.528198,120.179733 1216.205444,134.445023 
	C1216.530762,141.296173 1219.976562,147.506775 1226.639282,150.884399 
	C1236.326172,155.795105 1245.987549,155.320938 1255.603638,150.319733 
	C1256.209229,151.456253 1256.860474,152.678360 1257.401855,153.694183 
	C1262.994629,153.694183 1268.410767,153.694183 1273.999756,153.694183 
	C1273.999756,133.923096 1273.952881,114.456940 1274.048096,94.991470 
	C1274.063110,91.920280 1272.949585,90.812096 1269.943237,90.960213 
	C1266.454712,91.132080 1262.937134,91.197006 1259.458252,90.945786 
	C1255.858765,90.685844 1254.886597,92.179230 1254.938110,95.591827 
	C1255.104248,106.579742 1254.981689,117.571785 1255.009155,128.562149 
	C1255.019653,132.803436 1253.201172,135.633469 1249.099731,137.039459 
	C1241.281250,139.719604 1237.142578,137.793091 1234.000732,128.984909 
M940.538940,153.999878 
	C943.969055,153.999878 947.399170,153.999878 950.999939,153.999878 
	C950.999939,141.272476 950.952209,129.139893 951.024048,117.008041 
	C951.051880,112.312683 954.587341,108.748184 959.615051,108.006004 
	C965.434631,107.146942 969.468445,109.162704 970.981140,113.966011 
	C971.601013,115.934502 971.939514,118.072235 971.956482,120.136635 
	C972.048462,131.378143 972.000061,142.620804 972.000061,153.681213 
	C978.385010,153.681213 984.122253,153.681213 989.999878,153.681213 
	C989.999878,139.560669 990.415100,125.740639 989.828552,111.963264 
	C989.525330,104.839043 986.050598,98.542816 979.281555,95.094414 
	C969.626831,90.175903 959.949219,90.630241 950.415344,95.716705 
	C947.794983,90.502884 943.206421,89.400764 933.308594,91.624924 
	C933.308594,112.386253 933.308594,133.106812 933.308594,153.999878 
	C935.597290,153.999878 937.578491,153.999878 940.538940,153.999878 
M754.999939,76.504272 
	C754.999939,71.737190 754.999939,66.970108 754.999939,62.289455 
	C748.351746,62.289455 742.279724,62.289455 736.286499,62.289455 
	C736.286499,92.980293 736.286499,123.380981 736.286499,153.710403 
	C742.648499,153.710403 748.720581,153.710403 754.999939,153.710403 
	C754.999939,128.115463 754.999939,102.809387 754.999939,76.504272 
M922.999939,127.500000 
	C922.999939,115.404861 922.999939,103.309723 922.999939,91.287521 
	C916.688477,91.287521 910.950439,91.287521 905.284790,91.287521 
	C905.284790,112.310638 905.284790,133.045135 905.284790,153.712555 
	C911.311401,153.712555 917.049438,153.712555 922.999939,153.712555 
	C922.999939,145.117691 922.999939,136.808838 922.999939,127.500000 
M143.711456,182.349747 
	C152.961380,178.557144 160.803955,172.768768 166.776566,165.286453 
	C166.611053,163.094360 167.033752,160.927612 167.331467,158.743805 
	C167.487228,157.601181 167.925598,155.970459 167.364563,155.355515 
	C165.684875,153.514374 163.575516,152.065231 160.900482,149.857895 
	C158.224609,152.161972 157.241089,148.515335 156.185120,146.578278 
	C153.812408,146.578278 152.011459,146.729782 150.248596,146.535614 
	C148.490387,146.341965 146.770355,145.801819 145.033585,145.413589 
	C143.231918,142.939133 140.945160,143.482147 138.137665,146.376968 
	C137.429199,143.816467 136.911026,141.943710 136.392868,140.070953 
	C135.945480,140.066071 135.498077,140.061188 135.050690,140.056320 
	C134.729767,141.817123 133.530304,144.305786 134.264725,145.192261 
	C135.968002,147.248199 138.397110,149.247742 140.907669,149.977448 
	C146.277939,151.538284 151.188690,153.553757 152.805435,159.299286 
	C154.354828,164.805527 152.688171,169.492050 148.244614,173.592606 
	C145.848785,175.803513 144.768692,179.440216 143.711456,182.349747 
M71.919327,57.558064 
	C67.255310,62.055363 62.512138,66.477272 58.047657,71.164619 
	C57.592800,71.642181 58.578091,74.714622 59.293091,74.881920 
	C63.494427,75.864967 64.423767,82.392685 69.859734,81.006470 
	C69.861008,81.006142 69.905930,81.428741 69.986824,81.451256 
	C71.295448,81.815437 72.597771,82.243988 73.933578,82.456146 
	C75.096230,82.640793 76.307442,82.499184 77.482101,82.633614 
	C79.201828,82.830429 80.908066,83.144997 82.620056,83.409386 
	C82.711800,82.692398 82.803551,81.975410 82.895294,81.258423 
	C85.050598,84.606216 87.301620,85.273224 89.869812,81.354530 
	C90.888016,84.060188 91.630814,86.034012 92.481606,88.294792 
	C95.980278,82.799057 93.981453,78.439896 88.190506,77.876045 
	C78.836205,76.965233 73.719704,73.673981 72.723587,66.606598 
	C72.211716,62.974880 73.624657,59.071869 74.130585,55.550377 
	C73.839081,55.803936 73.128159,56.422306 71.919327,57.558064 
M923.721985,71.189651 
	C923.423096,70.628609 923.068726,70.089752 922.833984,69.503044 
	C920.843872,64.529686 916.636475,62.859303 912.142822,64.234116 
	C909.134521,65.154503 905.616394,67.795921 904.458496,70.560265 
	C902.841614,74.420525 903.543579,78.982758 907.560486,82.046585 
	C910.890991,84.586952 914.353271,84.596008 918.049561,83.016930 
	C923.001770,80.901329 924.206848,76.829872 923.721985,71.189651 
z"/>
<path fill="#FFFFFF" opacity="1.000000" stroke="none" 
	d="
M558.795288,153.066574 
	C557.303406,153.416641 556.238037,153.958221 555.170715,153.962097 
	C540.014648,154.017349 524.858337,153.999741 509.351166,153.999741 
	C509.351166,124.514771 509.351166,95.116173 509.351166,65.000137 
	C512.806213,65.000137 516.552734,65.000130 520.299255,65.000130 
	C528.462830,65.000130 536.635376,65.248604 544.788147,64.951378 
	C565.396240,64.200050 580.257874,77.421715 583.930237,96.745659 
	C587.189392,113.895317 585.326965,130.338882 573.270203,143.893951 
	C569.693054,147.915665 563.963989,150.023315 558.795288,153.066574 
M562.620300,124.902626 
	C566.230774,117.100304 565.683411,108.775345 564.693420,100.718575 
	C563.808655,93.519035 559.607361,86.746605 552.762024,84.711426 
	C545.317993,82.498222 537.036926,83.100044 529.000000,82.464951 
	C529.000000,92.394264 529.000000,101.052307 529.000000,109.710350 
	C529.000000,118.451706 529.000000,127.193062 529.000000,136.000000 
	C535.200134,136.000000 540.691345,136.009354 546.182617,135.997742 
	C553.789490,135.981644 559.090576,132.474548 562.620300,124.902626 
z"/>
<path fill="#FFFFFF" opacity="1.000000" stroke="none" 
	d="
M1043.985596,148.266785 
	C1043.216675,147.847473 1042.243042,147.510376 1041.735107,147.856583 
	C1023.029175,160.604309 999.001648,146.829086 996.817810,126.701721 
	C995.306702,112.774742 998.752502,101.443405 1010.708923,94.063179 
	C1020.381165,88.092850 1030.906250,87.941345 1041.149902,93.587456 
	C1042.125244,94.125053 1043.163452,94.548477 1044.264160,95.068253 
	C1048.700928,87.579742 1055.746704,92.452225 1062.000000,90.688057 
	C1062.000000,109.767036 1062.131226,128.204239 1061.908447,146.637161 
	C1061.852173,151.283539 1061.100342,156.031769 1059.909302,160.532379 
	C1056.977783,171.609955 1045.414673,177.486221 1036.608521,179.101257 
	C1026.504395,180.954330 1016.861145,180.005707 1007.596924,175.864334 
	C1005.988220,175.145187 1004.361755,172.729614 1004.161560,170.938995 
	C1003.668396,166.529373 1004.000122,162.027527 1004.000122,157.027893 
	C1012.803833,164.380035 1022.354858,167.073608 1033.005005,163.434372 
	C1039.867432,161.089386 1042.768555,155.406464 1043.985596,148.266785 
M1035.034546,107.017235 
	C1024.464844,102.878143 1013.427063,112.057732 1014.876831,122.539680 
	C1015.680542,128.351318 1020.704773,135.012329 1026.431519,135.991074 
	C1033.218384,137.151031 1040.682251,133.221283 1042.884888,127.328270 
	C1045.714600,119.757484 1043.436646,113.306534 1035.034546,107.017235 
z"/>
<path fill="#FFFFFF" opacity="1.000000" stroke="none" 
	d="
M1076.175537,107.669983 
	C1063.000732,89.306473 1076.817383,68.295471 1094.422852,64.983170 
	C1108.661743,62.304249 1121.689209,63.796028 1131.904663,75.430481 
	C1132.970093,76.643982 1133.907837,77.969818 1135.147217,79.553131 
	C1129.827393,83.088242 1124.681274,86.507988 1119.525757,89.933968 
	C1113.857910,80.232117 1098.306763,79.866020 1093.588257,85.762177 
	C1089.625977,90.713364 1089.693726,94.523369 1095.575195,96.931015 
	C1102.645142,99.825203 1110.101807,101.806480 1117.452515,103.975014 
	C1126.095459,106.524803 1133.857910,110.050240 1136.997192,119.474396 
	C1140.914795,131.235352 1135.757080,143.786591 1124.520386,150.049927 
	C1107.617188,159.471756 1091.368530,158.345871 1076.229248,146.455917 
	C1072.989136,143.911240 1071.172119,139.554916 1068.210083,135.336105 
	C1074.884155,132.142670 1080.868286,129.279373 1086.869629,126.407799 
	C1091.934692,137.773117 1106.800659,141.028519 1114.390137,133.210861 
	C1119.264038,128.190338 1115.962402,123.799042 1111.595947,122.338661 
	C1106.133789,120.511848 1100.393433,119.536583 1094.837036,117.967499 
	C1087.966309,116.027229 1081.301758,113.597099 1076.175537,107.669983 
z"/>
<path fill="#FFFFFF" opacity="1.000000" stroke="none" 
	d="
M394.881897,90.000137 
	C400.123871,91.018829 404.896271,92.037521 409.869995,93.099182 
	C409.869995,83.384926 409.869995,72.983215 409.869995,62.292915 
	C416.268066,62.292915 422.336792,62.292915 428.704407,62.292915 
	C428.704407,92.581345 428.704407,122.963226 428.704407,153.672852 
	C423.466949,153.672852 418.056274,153.672852 412.421478,153.672852 
	C412.078827,152.775452 411.643127,151.634384 411.053284,150.089584 
	C396.778961,158.774780 382.735260,158.937256 370.780487,147.047714 
	C350.310760,126.689743 364.028931,87.216110 394.881897,90.000137 
M389.195770,138.728058 
	C396.908630,140.916534 403.879486,139.625351 407.813263,132.311310 
	C409.738647,128.731445 409.784454,123.916740 409.908600,119.638504 
	C410.169067,110.664993 400.537323,104.323112 391.895660,106.563721 
	C384.369476,108.515121 380.132477,113.619759 379.101715,120.993652 
	C378.006073,128.831726 382.064026,134.325790 389.195770,138.728058 
z"/>
<path fill="#FFFFFF" opacity="1.000000" stroke="none" 
	d="
M1409.024048,62.000145 
	C1412.487183,62.000145 1415.463745,62.000145 1418.719116,62.000145 
	C1418.719116,92.634773 1418.719116,123.040031 1418.719116,153.723007 
	C1413.676758,153.723007 1408.583008,153.723007 1403.390625,153.723007 
	C1402.796143,152.583908 1402.139038,151.324524 1401.329834,149.773849 
	C1394.315186,155.001831 1386.375122,157.029861 1377.889038,155.861832 
	C1369.400879,154.693512 1362.440918,149.982162 1357.861816,143.102798 
	C1349.126221,129.978622 1348.855957,112.290367 1361.055420,98.652748 
	C1370.371094,88.239151 1389.295898,86.790741 1401.000000,94.938416 
	C1401.000000,89.196693 1401.000000,83.835747 1401.000000,78.474808 
	C1401.000000,73.166351 1401.000000,67.857895 1401.000000,62.000145 
	C1403.666626,62.000145 1406.102173,62.000145 1409.024048,62.000145 
M1370.792969,116.744385 
	C1370.822388,121.028145 1369.833618,125.648506 1371.113159,129.518967 
	C1373.174072,135.752548 1380.965820,140.462708 1385.988525,139.975601 
	C1393.660034,139.231613 1398.932495,134.409637 1400.849121,126.384850 
	C1402.332275,120.175049 1398.973999,111.643723 1394.417603,108.815086 
	C1384.763184,102.821579 1375.352539,107.059151 1370.792969,116.744385 
z"/>
<path fill="#FFFFFF" opacity="1.000000" stroke="none" 
	d="
M681.999939,167.981659 
	C681.999939,171.788940 681.999939,175.099731 681.999939,178.704376 
	C676.069153,178.704376 670.334045,178.704376 664.296631,178.704376 
	C664.296631,149.749420 664.296631,120.695770 664.296631,90.891571 
	C670.129517,92.479088 676.970337,87.860397 682.606628,94.667183 
	C690.109436,89.195435 699.044189,88.989601 708.048096,90.634514 
	C714.793579,91.866844 720.539734,95.635551 724.485413,101.121780 
	C734.368225,114.863129 733.447266,130.195328 726.110291,142.333694 
	C721.466553,150.016327 714.149780,153.758911 705.691284,155.743301 
	C701.638977,156.694016 695.833801,155.493759 681.999939,150.496246 
	C681.999939,156.181274 681.999939,161.833221 681.999939,167.981659 
M713.980103,119.991600 
	C713.631775,118.931351 713.316345,117.858917 712.929504,116.812897 
	C710.798401,111.050926 704.050537,105.795334 698.213440,106.084656 
	C691.571899,106.413857 686.316223,108.110924 683.988586,115.619499 
	C682.861511,119.255203 682.776428,123.415283 683.110718,127.260475 
	C683.792847,135.106415 692.990479,141.034836 700.706909,139.039642 
	C709.749878,136.701462 714.001282,130.883591 713.980103,119.991600 
z"/>
<path fill="#FFFFFF" opacity="1.000000" stroke="none" 
	d="
M1208.000000,125.000000 
	C1207.994385,142.832291 1207.989990,160.164597 1207.975342,177.496887 
	C1207.975098,177.808350 1207.853149,178.119690 1207.728394,178.714371 
	C1202.044556,178.714371 1196.305542,178.714371 1190.212402,178.714371 
	C1190.212402,169.370468 1190.212402,159.958420 1190.212402,150.335785 
	C1172.093384,161.384186 1156.393555,155.286942 1147.732422,144.028336 
	C1137.374268,130.563904 1138.267700,111.441978 1150.202026,98.494987 
	C1159.796753,88.086075 1178.926025,86.764877 1190.031372,94.944862 
	C1193.406250,90.361153 1193.406250,90.361153 1208.000000,91.249001 
	C1208.000000,102.302841 1208.000000,113.401421 1208.000000,125.000000 
M1177.057495,106.022316 
	C1164.723999,105.939957 1157.501953,113.677635 1159.100220,125.961800 
	C1159.973511,132.674026 1163.617188,136.740356 1169.958984,138.917343 
	C1175.482788,140.813492 1183.606567,138.289764 1186.497437,133.969925 
	C1192.150757,125.522285 1192.286133,109.982498 1177.057495,106.022316 
z"/>
<path fill="#FFFFFF" opacity="1.000000" stroke="none" 
	d="
M247.370132,84.009857 
	C235.087479,89.024658 228.887756,97.963799 229.068604,110.844994 
	C229.200134,120.215126 234.562439,130.705978 245.240784,134.604309 
	C255.084793,138.198044 264.043213,135.605652 271.774506,128.699432 
	C273.384766,127.261009 274.808838,125.614105 276.715729,123.655449 
	C280.382782,127.166245 284.093475,130.400238 287.342102,134.045975 
	C288.187378,134.994568 288.326599,137.848587 287.543976,138.777069 
	C278.152771,149.918579 266.450226,156.352859 251.457855,156.029037 
	C232.557907,155.620804 216.166840,141.817825 211.073730,123.668793 
	C206.914291,108.846893 208.941269,94.631889 218.092743,82.156464 
	C226.213638,71.085930 237.001709,64.382240 251.405197,63.876183 
	C264.682037,63.409710 275.449463,68.113892 285.083252,77.431984 
	C281.205200,82.090141 277.404236,86.655724 273.383209,91.485641 
	C265.563538,85.817703 257.791656,80.818283 247.370132,84.009857 
z"/>
<path fill="#FFFFFF" opacity="1.000000" stroke="none" 
	d="
M1305.057007,155.031006 
	C1291.614380,152.321045 1282.944336,142.260010 1280.889893,128.982086 
	C1278.654419,114.534470 1283.271484,103.395981 1294.764771,94.626854 
	C1303.421143,88.022339 1321.893799,87.858315 1330.398926,96.576523 
	C1333.065674,85.123680 1342.160278,94.266930 1347.730225,89.656090 
	C1347.730225,111.987404 1347.730225,132.725311 1347.730225,153.997818 
	C1343.155029,153.997818 1338.520630,154.279617 1333.958984,153.827621 
	C1332.574829,153.690460 1331.391479,151.525803 1329.818726,150.001572 
	C1323.257568,155.181915 1314.965820,157.804184 1305.057007,155.031006 
M1322.392456,137.071426 
	C1326.841797,134.767807 1329.072388,131.132507 1329.004028,126.100822 
	C1328.979248,124.274582 1329.003052,122.447723 1328.999512,120.621155 
	C1328.987915,114.744255 1325.071167,108.623940 1320.367188,107.128380 
	C1313.953003,105.089096 1305.587402,107.071182 1302.179565,111.437653 
	C1297.226196,117.784439 1296.305786,126.923317 1300.708008,132.072144 
	C1306.353882,138.675537 1311.826660,142.339783 1322.392456,137.071426 
z"/>
<path fill="#FFFFFF" opacity="1.000000" stroke="none" 
	d="
M634.102173,91.589981 
	C650.389832,99.036469 656.116577,110.884537 653.584717,131.851105 
	C639.644287,131.851105 625.678223,131.851105 611.659729,131.851105 
	C613.230591,137.571564 623.670837,142.485672 630.456360,140.803314 
	C633.873596,139.956085 637.215820,138.685959 640.675476,138.190445 
	C642.001587,138.000488 643.747681,139.208893 644.952881,140.203568 
	C645.883545,140.971649 646.274475,142.397369 646.895752,143.535950 
	C649.877869,149.001144 649.490601,150.466827 643.736755,152.661896 
	C628.010864,158.661301 612.883362,157.459198 600.067932,146.227798 
	C592.377380,139.487885 588.801392,129.791336 590.136475,119.370209 
	C591.722839,106.988609 598.410706,97.861679 609.938843,92.516479 
	C617.758362,88.890808 625.747314,89.500732 634.102173,91.589981 
M617.614502,117.000000 
	C623.668396,117.000000 629.722229,117.000000 635.920898,117.000000 
	C633.750977,110.641068 627.952820,105.890862 622.827454,106.007820 
	C618.315979,106.110764 611.165833,109.705521 609.705627,117.000000 
	C612.029846,117.000000 614.345215,117.000000 617.614502,117.000000 
z"/>
<path fill="#FFFFFF" opacity="1.000000" stroke="none" 
	d="
M491.039246,150.998077 
	C476.732391,159.117828 458.151001,157.915741 445.753296,147.030609 
	C433.107208,135.927383 430.892731,117.592789 441.104767,103.510902 
	C450.452789,90.620438 464.472626,86.685791 479.399719,92.054558 
	C489.559631,95.708748 498.172577,106.824905 498.927612,117.855919 
	C499.894653,131.984482 499.669617,131.999878 485.610016,131.999878 
	C475.615356,131.999878 465.620697,131.999878 455.598236,131.999878 
	C459.053650,138.025192 468.973877,142.414520 475.498260,140.783615 
	C478.918091,139.928772 482.282135,138.824509 485.731171,138.129852 
	C486.717194,137.931259 488.386322,138.436035 488.924561,139.196793 
	C490.681854,141.680710 492.343567,144.323868 493.421600,147.143021 
	C493.761627,148.032227 492.149689,149.667877 491.039246,150.998077 
M472.391785,117.000000 
	C475.109711,117.000000 477.827637,117.000000 480.711975,117.000000 
	C477.427582,109.341667 472.720245,105.393837 467.082520,106.074600 
	C460.651642,106.851128 456.220642,110.410156 454.393799,116.902786 
	C454.855255,116.941666 455.178223,116.992241 455.501282,116.992615 
	C460.807709,116.998825 466.114136,116.998703 472.391785,117.000000 
z"/>
<path fill="#FFFFFF" opacity="1.000000" stroke="none" 
	d="
M781.115295,91.966988 
	C801.697449,84.386177 822.285828,97.728996 825.154663,118.228928 
	C828.209412,140.057602 810.198303,158.241516 789.416199,155.916458 
	C776.682678,154.491852 767.275818,147.359177 762.462830,135.673584 
	C757.590210,123.843239 758.873596,111.983742 767.635071,102.121078 
	C771.231995,98.071953 776.302734,95.332092 781.115295,91.966988 
M795.793579,106.262802 
	C788.651245,104.374290 783.030029,110.168686 780.243896,115.446289 
	C776.712402,122.135918 777.725342,129.954437 782.655762,135.131760 
	C786.332458,138.992584 790.668396,141.118851 796.155823,139.365555 
	C802.137695,137.454285 806.747375,131.820648 807.000000,126.132050 
	C807.448975,116.023369 804.352905,110.424324 795.793579,106.262802 
z"/>
<path fill="#FFFFFF" opacity="1.000000" stroke="none" 
	d="
M294.968201,115.066673 
	C297.277740,101.159042 311.609955,89.784058 324.640106,89.944572 
	C342.482849,90.164375 352.897217,97.290222 357.979309,114.419273 
	C362.064148,128.187256 356.329071,143.978470 343.401855,151.290924 
	C329.100067,159.380920 315.163788,156.484207 303.813232,147.264023 
	C296.209900,141.087769 291.780426,124.742668 294.968201,115.066673 
M340.122284,128.372803 
	C340.414581,125.981483 341.072693,123.568138 340.930267,121.202995 
	C340.510437,114.230194 334.565338,107.390465 328.098816,106.024284 
	C323.975586,105.153183 317.357300,108.860909 314.361450,114.243927 
	C311.093781,120.115372 310.707001,126.459221 314.199188,132.255646 
	C317.170807,137.188080 321.930084,140.722687 327.958282,139.839310 
	C333.871552,138.972763 338.111115,135.149307 340.122284,128.372803 
z"/>
<path fill="#FFFFFF" opacity="1.000000" stroke="none" 
	d="
M852.278931,138.708923 
	C844.424377,123.004242 836.810608,107.605461 828.664490,91.130028 
	C835.723083,91.130028 842.090088,90.994781 848.437744,91.284660 
	C849.327942,91.325302 850.302002,93.359818 850.933350,94.623253 
	C855.506287,103.775139 860.001160,112.966095 864.945435,123.007095 
	C869.558350,113.067215 873.654724,103.930458 878.090088,94.961319 
	C878.914062,93.295120 881.012634,91.333252 882.676941,91.179932 
	C887.949890,90.694191 893.295776,91.000404 899.410461,91.000404 
	C897.705200,95.235580 896.324402,99.063652 894.648438,102.757751 
	C887.892639,117.648323 880.994446,132.474319 874.252075,147.370850 
	C870.290039,156.124603 866.447510,164.934631 862.703064,173.783600 
	C861.168518,177.409912 859.285095,179.607834 854.773132,179.111938 
	C850.166931,178.605652 845.461731,178.999878 840.094299,178.999878 
	C842.024658,174.409622 843.760437,170.084259 845.654785,165.829544 
	C847.871643,160.850555 850.059692,155.846252 852.572876,151.015549 
	C854.716309,146.895370 855.675049,143.005692 852.278931,138.708923 
z"/>
<path fill="#FFFFFF" opacity="1.000000" stroke="none" 
	d="
M1234.006836,129.428619 
	C1237.142578,137.793091 1241.281250,139.719604 1249.099731,137.039459 
	C1253.201172,135.633469 1255.019653,132.803436 1255.009155,128.562149 
	C1254.981689,117.571785 1255.104248,106.579742 1254.938110,95.591827 
	C1254.886597,92.179230 1255.858765,90.685844 1259.458252,90.945786 
	C1262.937134,91.197006 1266.454712,91.132080 1269.943237,90.960213 
	C1272.949585,90.812096 1274.063110,91.920280 1274.048096,94.991470 
	C1273.952881,114.456940 1273.999756,133.923096 1273.999756,153.694183 
	C1268.410767,153.694183 1262.994629,153.694183 1257.401855,153.694183 
	C1256.860474,152.678360 1256.209229,151.456253 1255.603638,150.319733 
	C1245.987549,155.320938 1236.326172,155.795105 1226.639282,150.884399 
	C1219.976562,147.506775 1216.530762,141.296173 1216.205444,134.445023 
	C1215.528198,120.179733 1216.000488,105.859863 1216.000488,91.281891 
	C1221.959595,91.281891 1227.695190,91.281891 1234.000732,91.281891 
	C1234.000732,103.807968 1234.000732,116.396439 1234.006836,129.428619 
z"/>
<path fill="#FFFFFF" opacity="1.000000" stroke="none" 
	d="
M940.049316,153.999878 
	C937.578491,153.999878 935.597290,153.999878 933.308594,153.999878 
	C933.308594,133.106812 933.308594,112.386253 933.308594,91.624924 
	C943.206421,89.400764 947.794983,90.502884 950.415344,95.716705 
	C959.949219,90.630241 969.626831,90.175903 979.281555,95.094414 
	C986.050598,98.542816 989.525330,104.839043 989.828552,111.963264 
	C990.415100,125.740639 989.999878,139.560669 989.999878,153.681213 
	C984.122253,153.681213 978.385010,153.681213 972.000061,153.681213 
	C972.000061,142.620804 972.048462,131.378143 971.956482,120.136635 
	C971.939514,118.072235 971.601013,115.934502 970.981140,113.966011 
	C969.468445,109.162704 965.434631,107.146942 959.615051,108.006004 
	C954.587341,108.748184 951.051880,112.312683 951.024048,117.008041 
	C950.952209,129.139893 950.999939,141.272476 950.999939,153.999878 
	C947.399170,153.999878 943.969055,153.999878 940.049316,153.999878 
z"/>
<path fill="#FFFFFF" opacity="1.000000" stroke="none" 
	d="
M754.999939,77.003792 
	C754.999939,102.809387 754.999939,128.115463 754.999939,153.710403 
	C748.720581,153.710403 742.648499,153.710403 736.286499,153.710403 
	C736.286499,123.380981 736.286499,92.980293 736.286499,62.289455 
	C742.279724,62.289455 748.351746,62.289455 754.999939,62.289455 
	C754.999939,66.970108 754.999939,71.737190 754.999939,77.003792 
z"/>
<path fill="#FFFFFF" opacity="1.000000" stroke="none" 
	d="
M922.999939,128.000000 
	C922.999939,136.808838 922.999939,145.117691 922.999939,153.712555 
	C917.049438,153.712555 911.311401,153.712555 905.284790,153.712555 
	C905.284790,133.045135 905.284790,112.310638 905.284790,91.287521 
	C910.950439,91.287521 916.688477,91.287521 922.999939,91.287521 
	C922.999939,103.309723 922.999939,115.404861 922.999939,128.000000 
z"/>
<path fill="#EAF6FD" opacity="1.000000" stroke="none" 
	d="
M99.446884,135.012939 
	C98.417770,133.154221 96.552299,131.319260 96.498703,129.432831 
	C96.206192,119.137024 96.404976,108.828239 96.335869,98.524590 
	C96.309662,94.616455 97.973145,92.607986 101.970711,92.646721 
	C106.291420,92.688591 110.614769,92.586075 114.933281,92.693954 
	C120.358330,92.829483 124.945595,94.850121 128.640686,99.745522 
	C129.253891,100.570900 129.634811,100.800049 130.015732,101.029205 
	C130.015732,101.029205 129.980728,101.020096 129.851227,101.383972 
	C130.337021,103.455414 131.056641,105.133362 131.551331,106.875183 
	C136.081680,122.826607 127.212006,134.758133 110.862511,134.793335 
	C107.057167,134.801529 103.252083,134.936356 99.446884,135.012939 
M118.011940,126.553215 
	C124.463707,122.085892 125.954475,114.493744 122.125000,104.587059 
	C117.544273,97.637802 110.759163,100.699570 104.592529,100.106590 
	C104.592529,109.629189 104.592529,118.517708 104.592529,128.305435 
	C109.160614,127.816261 113.330986,127.369675 118.011940,126.553215 
z"/>
<path fill="#E7F5FE" opacity="1.000000" stroke="none" 
	d="
M160.024231,123.471077 
	C159.907394,123.295364 159.836182,123.102783 159.928879,122.347000 
	C158.314346,120.489784 156.762970,118.650322 154.810272,117.980057 
	C150.963852,116.659767 146.894760,115.988220 142.917770,115.048332 
	C142.917770,115.048332 142.980057,115.007500 142.875946,114.704086 
	C142.336121,114.262352 141.900421,114.124031 141.464706,113.985710 
	C137.181519,110.562782 136.292191,106.107292 137.820557,101.109810 
	C139.537842,95.494568 144.029434,93.139580 149.367569,92.403999 
	C155.098129,91.614334 160.563400,92.627083 165.592804,96.815285 
	C166.219635,97.622513 166.563629,97.870949 166.907623,98.119385 
	C166.907623,98.119392 166.949677,98.046844 166.817444,98.423126 
	C166.461792,103.249275 164.479813,103.907326 160.506821,102.258209 
	C157.411804,100.973526 153.890259,99.959625 150.625153,100.127327 
	C148.689514,100.226746 145.720093,102.568634 145.272552,104.403854 
	C144.455276,107.755211 147.142746,109.245033 150.455338,109.153305 
	C155.519882,111.082901 160.584412,113.012497 165.825302,115.566742 
	C166.356979,116.454643 166.712296,116.717896 167.067612,116.981140 
	C167.067612,116.981148 167.002548,116.991692 166.990601,117.366592 
	C168.933990,129.062927 163.594818,135.409439 151.934662,135.087067 
	C148.250092,134.985214 144.596649,133.756607 140.928970,133.043671 
	C140.928970,133.043671 140.992432,133.003723 140.971954,132.737518 
	C140.597153,132.331070 140.242844,132.190842 139.888519,132.050613 
	C139.888519,132.050613 139.965546,132.022995 139.842163,131.751556 
	C139.120483,131.191452 138.522202,130.902802 137.923904,130.614136 
	C137.463791,129.273254 137.003677,127.932388 136.264709,126.352814 
	C135.985855,126.114113 136.013916,126.217819 136.013916,126.217819 
	C138.625885,123.261337 140.947495,122.947319 144.725845,125.201180 
	C147.759796,127.010994 152.083069,126.659363 156.568146,127.227112 
	C157.850281,126.720451 158.398483,126.253540 158.946671,125.786621 
	C158.946671,125.786613 158.950424,125.957359 159.232758,125.807236 
	C159.684814,124.928429 159.854523,124.199753 160.024231,123.471077 
z"/>
<path fill="#E7F5FE" opacity="1.000000" stroke="none" 
	d="
M71.421707,125.118866 
	C75.699715,128.247879 80.290199,127.839546 84.988457,126.336975 
	C87.279564,125.604240 89.604027,124.867859 90.559929,129.013443 
	C89.350685,131.125702 88.090187,133.254150 86.267853,133.988693 
	C79.103973,136.876282 72.288734,134.509186 65.589867,131.840317 
	C52.106430,120.080269 55.677158,102.927872 67.115364,95.861923 
	C74.726723,91.160004 82.780602,90.657509 90.693634,96.656044 
	C90.432167,104.086655 86.255165,101.690758 82.668182,100.717911 
	C75.744835,98.840187 69.404167,101.857468 66.788376,108.274025 
	C64.046326,115.000298 66.021782,122.182228 71.421707,125.118866 
z"/>
<path fill="#1DA5F9" opacity="1.000000" stroke="none" 
	d="
M143.403229,182.391693 
	C144.768692,179.440216 145.848785,175.803513 148.244614,173.592606 
	C152.688171,169.492050 154.354828,164.805527 152.805435,159.299286 
	C151.188690,153.553757 146.277939,151.538284 140.907669,149.977448 
	C138.397110,149.247742 135.968002,147.248199 134.264725,145.192261 
	C133.530304,144.305786 134.729767,141.817123 135.050690,140.056320 
	C135.498077,140.061188 135.945480,140.066071 136.392868,140.070953 
	C136.911026,141.943710 137.429199,143.816467 138.137665,146.376968 
	C140.945160,143.482147 143.231918,142.939133 145.033585,145.413589 
	C146.770355,145.801819 148.490387,146.341965 150.248596,146.535614 
	C152.011459,146.729782 153.812408,146.578278 156.185120,146.578278 
	C157.241089,148.515335 158.224609,152.161972 160.900482,149.857895 
	C163.575516,152.065231 165.684875,153.514374 167.364563,155.355515 
	C167.925598,155.970459 167.487228,157.601181 167.331467,158.743805 
	C167.033752,160.927612 166.611053,163.094360 166.776566,165.286453 
	C160.803955,172.768768 152.961380,178.557144 143.403229,182.391693 
z"/>
<path fill="#1EA4F7" opacity="1.000000" stroke="none" 
	d="
M72.168289,57.299370 
	C73.128159,56.422306 73.839081,55.803936 74.130585,55.550377 
	C73.624657,59.071869 72.211716,62.974880 72.723587,66.606598 
	C73.719704,73.673981 78.836205,76.965233 88.190506,77.876045 
	C93.981453,78.439896 95.980278,82.799057 92.481606,88.294792 
	C91.630814,86.034012 90.888016,84.060188 89.869812,81.354530 
	C87.301620,85.273224 85.050598,84.606216 82.895294,81.258423 
	C82.803551,81.975410 82.711800,82.692398 82.620056,83.409386 
	C80.908066,83.144997 79.201828,82.830429 77.482101,82.633614 
	C76.307442,82.499184 75.096230,82.640793 73.933578,82.456146 
	C72.597771,82.243988 71.295448,81.815437 69.986824,81.451256 
	C69.905930,81.428741 69.861008,81.006142 69.859734,81.006470 
	C64.423767,82.392685 63.494427,75.864967 59.293091,74.881920 
	C58.578091,74.714622 57.592800,71.642181 58.047657,71.164619 
	C62.512138,66.477272 67.255310,62.055363 72.168289,57.299370 
z"/>
<path fill="#FFFFFF" opacity="1.000000" stroke="none" 
	d="
M923.850891,71.576721 
	C924.206848,76.829872 923.001770,80.901329 918.049561,83.016930 
	C914.353271,84.596008 910.890991,84.586952 907.560486,82.046585 
	C903.543579,78.982758 902.841614,74.420525 904.458496,70.560265 
	C905.616394,67.795921 909.134521,65.154503 912.142822,64.234116 
	C916.636475,62.859303 920.843872,64.529686 922.833984,69.503044 
	C923.068726,70.089752 923.423096,70.628609 923.850891,71.576721 
z"/>
<path fill="#24A7F8" opacity="1.000000" stroke="none" 
	d="
M99.565598,135.397888 
	C103.252083,134.936356 107.057167,134.801529 110.862511,134.793335 
	C127.212006,134.758133 136.081680,122.826607 131.551331,106.875183 
	C131.056641,105.133362 130.337021,103.455414 129.847351,101.366318 
	C136.465103,105.794373 136.824432,112.807388 136.703247,119.946777 
	C136.672699,121.746429 136.256882,123.539536 136.016022,125.776733 
	C136.013916,126.217819 135.985855,126.114113 136.039474,126.114761 
	C132.851334,131.395737 129.966156,137.412552 122.981995,138.227142 
	C116.458878,138.987976 109.818222,138.926254 103.235619,138.823212 
	C102.036285,138.804443 100.867310,136.845917 99.565598,135.397888 
z"/>
<path fill="#22A6F8" opacity="1.000000" stroke="none" 
	d="
M71.313423,124.699402 
	C66.021782,122.182228 64.046326,115.000298 66.788376,108.274025 
	C69.404167,101.857468 75.744835,98.840187 82.668182,100.717911 
	C86.255165,101.690758 90.432167,104.086655 90.868073,96.919731 
	C91.836998,97.201241 93.150963,97.716644 93.576180,98.640915 
	C94.269852,100.148743 95.176056,102.391579 94.540878,103.466354 
	C93.753624,104.798454 91.496796,105.277466 89.847549,106.068161 
	C89.598526,106.187531 89.179184,106.058006 88.876411,105.943611 
	C74.554710,100.532478 66.676163,112.369171 71.313423,124.699402 
z"/>
<path fill="#23A5F5" opacity="1.000000" stroke="none" 
	d="
M140.885590,133.397995 
	C144.596649,133.756607 148.250092,134.985214 151.934662,135.087067 
	C163.594818,135.409439 168.933990,129.062927 167.006744,117.337860 
	C174.327026,121.483437 173.754807,132.006104 165.950531,136.873474 
	C158.472290,141.537491 147.585083,140.184128 140.885590,133.397995 
z"/>
<path fill="#23A5F6" opacity="1.000000" stroke="none" 
	d="
M150.087738,108.851151 
	C147.142746,109.245033 144.455276,107.755211 145.272552,104.403854 
	C145.720093,102.568634 148.689514,100.226746 150.625153,100.127327 
	C153.890259,99.959625 157.411804,100.973526 160.506821,102.258209 
	C164.479813,103.907326 166.461792,103.249275 166.775879,98.417732 
	C167.790192,98.735611 169.259766,99.274170 169.523483,100.168365 
	C170.066727,102.010330 170.774323,104.647469 169.895950,105.820747 
	C169.066940,106.928131 166.208252,107.069115 164.388718,106.763603 
	C160.890976,106.176285 157.536499,104.493935 154.044647,104.203690 
	C151.938171,104.028595 148.871490,104.839592 150.087738,108.851151 
z"/>
<path fill="#23A6F6" opacity="1.000000" stroke="none" 
	d="
M65.746231,132.175140 
	C72.288734,134.509186 79.103973,136.876282 86.267853,133.988693 
	C88.090187,133.254150 89.350685,131.125702 90.757065,129.266510 
	C92.134094,130.324509 94.561745,131.604233 94.820694,133.229477 
	C95.034225,134.569626 93.008476,137.000443 91.408073,137.772232 
	C83.281296,141.691406 72.669876,139.338593 65.746231,132.175140 
z"/>
<path fill="#2AA8F6" opacity="1.000000" stroke="none" 
	d="
M142.890228,115.403564 
	C146.894760,115.988220 150.963852,116.659767 154.810272,117.980057 
	C156.762970,118.650322 158.314346,120.489784 159.981049,122.200928 
	C154.091660,120.667297 147.168686,121.474014 142.890228,115.403564 
z"/>
<path fill="#2AA8F6" opacity="1.000000" stroke="none" 
	d="
M159.771469,123.723686 
	C159.854523,124.199753 159.684814,124.928429 159.147781,125.798889 
	C159.026535,125.285873 159.272629,124.631088 159.771469,123.723686 
z"/>
<path fill="#2AA8F6" opacity="1.000000" stroke="none" 
	d="
M158.590027,125.807312 
	C158.398483,126.253540 157.850281,126.720451 156.917175,127.147278 
	C157.099304,126.680794 157.666351,126.254395 158.590027,125.807312 
z"/>
<path fill="#23A5F5" opacity="1.000000" stroke="none" 
	d="
M138.061600,130.937958 
	C138.522202,130.902802 139.120483,131.191452 139.850372,131.791641 
	C139.387726,131.822708 138.793518,131.542236 138.061600,130.937958 
z"/>
<path fill="#23A5F5" opacity="1.000000" stroke="none" 
	d="
M167.065643,116.632111 
	C166.712296,116.717896 166.356979,116.454643 165.987411,115.832558 
	C166.336670,115.743507 166.700165,116.013290 167.065643,116.632111 
z"/>
<path fill="#24A7F8" opacity="1.000000" stroke="none" 
	d="
M129.992584,100.685196 
	C129.634811,100.800049 129.253891,100.570900 128.856049,99.966927 
	C129.215897,99.841805 129.592667,100.091507 129.992584,100.685196 
z"/>
<path fill="#23A5F5" opacity="1.000000" stroke="none" 
	d="
M139.915710,132.359344 
	C140.242844,132.190842 140.597153,132.331070 140.956299,132.771576 
	C140.621704,132.937271 140.282288,132.802673 139.915710,132.359344 
z"/>
<path fill="#23A5F6" opacity="1.000000" stroke="none" 
	d="
M166.882797,97.786797 
	C166.563629,97.870949 166.219635,97.622513 165.826248,97.027725 
	C166.137222,96.938988 166.497604,97.196602 166.882797,97.786797 
z"/>
<path fill="#2AA8F6" opacity="1.000000" stroke="none" 
	d="
M141.599213,114.311241 
	C141.900421,114.124031 142.336121,114.262352 142.871857,114.741104 
	C142.559174,114.933273 142.146454,114.785027 141.599213,114.311241 
z"/>
<path fill="#000000" opacity="1.000000" stroke="none" 
	d="
M562.341431,125.183266 
	C559.090576,132.474548 553.789490,135.981644 546.182617,135.997742 
	C540.691345,136.009354 535.200134,136.000000 529.000000,136.000000 
	C529.000000,127.193062 529.000000,118.451706 529.000000,109.710350 
	C529.000000,101.052307 529.000000,92.394264 529.000000,82.464951 
	C537.036926,83.100044 545.317993,82.498222 552.762024,84.711426 
	C559.607361,86.746605 563.808655,93.519035 564.693420,100.718575 
	C565.683411,108.775345 566.230774,117.100304 562.341431,125.183266 
z"/>
<path fill="#000000" opacity="1.000000" stroke="none" 
	d="
M1035.418579,107.144768 
	C1043.436646,113.306534 1045.714600,119.757484 1042.884888,127.328270 
	C1040.682251,133.221283 1033.218384,137.151031 1026.431519,135.991074 
	C1020.704773,135.012329 1015.680542,128.351318 1014.876831,122.539680 
	C1013.427063,112.057732 1024.464844,102.878143 1035.418579,107.144768 
z"/>
<path fill="#000000" opacity="1.000000" stroke="none" 
	d="
M388.930298,138.436493 
	C382.064026,134.325790 378.006073,128.831726 379.101715,120.993652 
	C380.132477,113.619759 384.369476,108.515121 391.895660,106.563721 
	C400.537323,104.323112 410.169067,110.664993 409.908600,119.638504 
	C409.784454,123.916740 409.738647,128.731445 407.813263,132.311310 
	C403.879486,139.625351 396.908630,140.916534 388.930298,138.436493 
z"/>
<path fill="#000000" opacity="1.000000" stroke="none" 
	d="
M1370.896729,116.348053 
	C1375.352539,107.059151 1384.763184,102.821579 1394.417603,108.815086 
	C1398.973999,111.643723 1402.332275,120.175049 1400.849121,126.384850 
	C1398.932495,134.409637 1393.660034,139.231613 1385.988525,139.975601 
	C1380.965820,140.462708 1373.174072,135.752548 1371.113159,129.518967 
	C1369.833618,125.648506 1370.822388,121.028145 1370.896729,116.348053 
z"/>
<path fill="#000000" opacity="1.000000" stroke="none" 
	d="
M713.989380,120.421036 
	C714.001282,130.883591 709.749878,136.701462 700.706909,139.039642 
	C692.990479,141.034836 683.792847,135.106415 683.110718,127.260475 
	C682.776428,123.415283 682.861511,119.255203 683.988586,115.619499 
	C686.316223,108.110924 691.571899,106.413857 698.213440,106.084656 
	C704.050537,105.795334 710.798401,111.050926 712.929504,116.812897 
	C713.316345,117.858917 713.631775,118.931351 713.989380,120.421036 
z"/>
<path fill="#000000" opacity="1.000000" stroke="none" 
	d="
M1177.452637,106.170280 
	C1192.286133,109.982498 1192.150757,125.522285 1186.497437,133.969925 
	C1183.606567,138.289764 1175.482788,140.813492 1169.958984,138.917343 
	C1163.617188,136.740356 1159.973511,132.674026 1159.100220,125.961800 
	C1157.501953,113.677635 1164.723999,105.939957 1177.452637,106.170280 
z"/>
<path fill="#000000" opacity="1.000000" stroke="none" 
	d="
M1322.133545,137.362793 
	C1311.826660,142.339783 1306.353882,138.675537 1300.708008,132.072144 
	C1296.305786,126.923317 1297.226196,117.784439 1302.179565,111.437653 
	C1305.587402,107.071182 1313.953003,105.089096 1320.367188,107.128380 
	C1325.071167,108.623940 1328.987915,114.744255 1328.999512,120.621155 
	C1329.003052,122.447723 1328.979248,124.274582 1329.004028,126.100822 
	C1329.072388,131.132507 1326.841797,134.767807 1322.133545,137.362793 
z"/>
<path fill="#000000" opacity="1.000000" stroke="none" 
	d="
M617.137573,117.000000 
	C614.345215,117.000000 612.029846,117.000000 609.705627,117.000000 
	C611.165833,109.705521 618.315979,106.110764 622.827454,106.007820 
	C627.952820,105.890862 633.750977,110.641068 635.920898,117.000000 
	C629.722229,117.000000 623.668396,117.000000 617.137573,117.000000 
z"/>
<path fill="#000000" opacity="1.000000" stroke="none" 
	d="
M471.906189,117.000000 
	C466.114136,116.998703 460.807709,116.998825 455.501282,116.992615 
	C455.178223,116.992241 454.855255,116.941666 454.393799,116.902786 
	C456.220642,110.410156 460.651642,106.851128 467.082520,106.074600 
	C472.720245,105.393837 477.427582,109.341667 480.711975,117.000000 
	C477.827637,117.000000 475.109711,117.000000 471.906189,117.000000 
z"/>
<path fill="#000000" opacity="1.000000" stroke="none" 
	d="
M796.068237,106.560928 
	C804.352905,110.424324 807.448975,116.023369 807.000000,126.132050 
	C806.747375,131.820648 802.137695,137.454285 796.155823,139.365555 
	C790.668396,141.118851 786.332458,138.992584 782.655762,135.131760 
	C777.725342,129.954437 776.712402,122.135918 780.243896,115.446289 
	C783.030029,110.168686 788.651245,104.374290 796.068237,106.560928 
z"/>
<path fill="#000000" opacity="1.000000" stroke="none" 
	d="
M340.065216,128.785172 
	C338.111115,135.149307 333.871552,138.972763 327.958282,139.839310 
	C321.930084,140.722687 317.170807,137.188080 314.199188,132.255646 
	C310.707001,126.459221 311.093781,120.115372 314.361450,114.243927 
	C317.357300,108.860909 323.975586,105.153183 328.098816,106.024284 
	C334.565338,107.390465 340.510437,114.230194 340.930267,121.202995 
	C341.072693,123.568138 340.414581,125.981483 340.065216,128.785172 
z"/>
<path fill="#010508" opacity="1.000000" stroke="none" 
	d="
M122.169777,105.378281 
	C125.954475,114.493744 124.463707,122.085892 117.257370,126.677780 
	C114.073158,126.802338 111.643524,126.802338 109.141754,126.802338 
	C109.141754,119.234810 109.141754,112.160744 109.141754,104.385361 
	C113.687523,104.731812 117.928650,105.055046 122.169777,105.378281 
z"/>
<path fill="#2BA7F3" opacity="1.000000" stroke="none" 
	d="
M122.147385,104.982666 
	C117.928650,105.055046 113.687523,104.731812 109.141754,104.385361 
	C109.141754,112.160744 109.141754,119.234810 109.141754,126.802338 
	C111.643524,126.802338 114.073158,126.802338 117.002075,126.862717 
	C113.330986,127.369675 109.160614,127.816261 104.592529,128.305435 
	C104.592529,118.517708 104.592529,109.629189 104.592529,100.106590 
	C110.759163,100.699570 117.544273,97.637802 122.147385,104.982666 
z"/>
</svg>